<svg width="27" height="27" viewBox="0 0 27 27" fill="none" xmlns="http://www.w3.org/2000/svg">
<circle cx="13.5" cy="13.5" r="13.5" fill="black"/>
<g clip-path="url(#clip0_715_553)">
<path d="M17.2384 20.5575L16.9869 21.5856C16.2324 21.8834 15.6297 22.1101 15.1809 22.2659C14.7316 22.4222 14.2096 22.5 13.6148 22.5C12.7014 22.5 11.9909 22.2762 11.4842 21.8318C10.9774 21.3856 10.724 20.8201 10.724 20.1342C10.724 19.8687 10.7424 19.5955 10.7806 19.3172C10.8192 19.0386 10.8805 18.7249 10.9644 18.3741L11.9073 15.0367C11.9912 14.7171 12.0625 14.4143 12.1196 14.128C12.1775 13.8434 12.2054 13.5815 12.2054 13.3459C12.2054 12.9196 12.1172 12.6215 11.9415 12.4539C11.7658 12.2868 11.4306 12.2019 10.9329 12.2019C10.6892 12.2019 10.4386 12.2409 10.1833 12.3164C9.92675 12.3923 9.70751 12.4655 9.52344 12.5336L9.77559 11.5047C10.3933 11.2532 10.9837 11.0378 11.5485 10.8591C12.1133 10.6798 12.647 10.5901 13.1518 10.5901C14.0589 10.5901 14.7589 10.8094 15.2504 11.2478C15.742 11.6866 15.9877 12.2555 15.9877 12.9564C15.9877 13.1014 15.9715 13.357 15.9369 13.7222C15.903 14.0883 15.8399 14.4237 15.7479 14.7287L14.809 18.0528C14.7321 18.3198 14.6629 18.625 14.6027 18.9685C14.5406 19.3097 14.5109 19.5704 14.5109 19.7452C14.5109 20.1866 14.6093 20.488 14.8066 20.6482C15.0054 20.8084 15.3477 20.8881 15.8339 20.8881C16.0622 20.8881 16.3219 20.8476 16.6105 20.768C16.8983 20.6885 17.1082 20.6186 17.2384 20.5575ZM17.4765 6.60205C17.4765 7.1812 17.2583 7.67582 16.8196 8.08251C16.3821 8.49066 15.8549 8.6949 15.2382 8.6949C14.6195 8.6949 14.091 8.49066 13.6485 8.08251C13.2068 7.67565 12.9854 7.1812 12.9854 6.60205C12.9854 6.02402 13.2068 5.5286 13.6485 5.11674C14.0902 4.70553 14.6196 4.5 15.2382 4.5C15.8547 4.5 16.3821 4.70601 16.8196 5.11674C17.2586 5.5286 17.4765 6.02418 17.4765 6.60205Z" fill="white"/>
</g>
<defs>
<clipPath id="clip0_715_553">
<rect width="18" height="18" fill="white" transform="translate(4.5 4.5)"/>
</clipPath>
</defs>
</svg>
